# xmcd
#
# Track frame offsets:
#	150
#	15225
#	39308
#	61564
#	78839
#	100214
#	114629
#	138089
#	162264
#	181882
#	202207
#	222082
#
# Disc length: 3124 seconds
#
# Revision: 0
# Processed by: cddbd v1.5.2PL0 Copyright (c) Steve Scherf et al.
# Submitted via: EZCDAudioConverter 2.0.7.1
#
DISCID=900c320c
DTITLE=Meena Cryle and The Chris Fillmore Band  - Tell Me
DYEAR=2014
DGENRE=
TTITLE0=Take This Pressure Off Of Me
TTITLE1=Bring Me The Water
TTITLE2=Tell Me
TTITLE3=Enough Is Enough
TTITLE4=I Beg You
TTITLE5=Give It Back
TTITLE6=This Is My Will
TTITLE7=You Don't Know
TTITLE8=I've Been Drinking
TTITLE9=Baby, Goodbye
TTITLE10=Where Is Your Love Gone
TTITLE11=You May Love Me Today
EXTD=
EXTT0=
EXTT1=
EXTT2=
EXTT3=
EXTT4=
EXTT5=
EXTT6=
EXTT7=
EXTT8=
EXTT9=
EXTT10=
EXTT11=
PLAYORDER=
